# xmcd CD database file
#
# Track frame offsets:
#	150
#	14895
#	29622
#	44035
#	59015
#	76097
#	90480
#	103485
#	120202
#	133527
#
# Disc length: 1927 seconds
#
# Revision: 0
# Processed by: cddbd v1.4PL0 Copyright (c) Steve Scherf et al.
# Submitted via: CDex 1.40Release
#
DISCID=8907850a
DTITLE=JR Goodwin - I Just Want To Sing My Song
DYEAR=1994
DGENRE=Country
TTITLE0=Before You Say That We Are Through
TTITLE1=Missing You
TTITLE2=Don't Ever Leave Me, Darlin'
TTITLE3=Before My Life Is Over
TTITLE4=Stop, Look, And Listen
TTITLE5=Won't Let Me Be
TTITLE6=A Man With A Dream
TTITLE7=I Just Want To Sing My Song
TTITLE8=I Ain't Felt This Way In Years
TTITLE9=El Torres, Cantina
EXTD=YEAR: 1994 ID3G: 2
EXTT0=
EXTT1=
EXTT2=
EXTT3=
EXTT4=
EXTT5=
EXTT6=
EXTT7=
EXTT8=
EXTT9=
PLAYORDER=
